<svg id="Capa_1" enable-background="new 0 0 512.033 512.033" height="512" viewBox="0 0 512.033 512.033" width="512" xmlns="http://www.w3.org/2000/svg" ><g><path fill="white" d="m497.017 166.02c-64.03 0-91.406-30.163-117.881-59.333-20.38-22.454-41.453-45.672-76.577-45.672-15.172 0-31.079 5.717-46.541 16.64-15.463-10.923-31.371-16.64-46.542-16.64-35.124 0-56.197 23.218-76.576 45.672-26.476 29.17-53.852 59.333-117.883 59.333-11.419 0-18.661 12.296-13.112 22.284 20.366 36.659 92.422 52.716 134.112 52.716 45.994 0 89.858-11.181 120-30.26 30.144 19.078 74.008 30.26 120 30.26 41.738 0 113.732-16.028 134.112-52.716 5.546-9.982-1.686-22.284-13.112-22.284zm-121 45c-34.364 0-81.541-7.993-110.892-30.424-5.376-4.109-12.84-4.11-18.217 0-29.349 22.432-76.526 30.424-110.892 30.424-26.918 0-60.791-7.262-83.802-18.339 52.205-9.979 79.87-40.459 102.898-65.832 20.771-22.886 33.538-35.834 54.362-35.834 14.033 0 27.731 9.264 36.751 17.036 5.627 4.849 13.954 4.848 19.583 0 9.019-7.771 22.715-17.035 36.749-17.035 20.824 0 33.591 12.948 54.362 35.834 23.028 25.372 50.693 55.852 102.897 65.832-23.007 11.076-56.88 18.338-83.799 18.338z"/><path fill="#40D075" d="m256.017 271.02c-41.355 0-75 33.645-75 75 0 23.352 9.094 45.307 25.607 61.82l38.786 38.787c5.853 5.854 15.355 5.858 21.213 0l38.787-38.787c16.513-16.512 25.606-38.467 25.606-61.82.001-41.355-33.644-75-74.999-75zm28.181 115.607-28.181 28.18-28.18-28.18c-10.847-10.847-16.82-25.268-16.82-40.607 0-24.813 20.187-45 45-45s45 20.187 45 45c0 15.339-5.974 29.761-16.819 40.607z"/></g></svg>